<svg viewBox="0 0 60 64" fill="none" xmlns="http://www.w3.org/2000/svg">
<path d="M54.0153 11.7202C56.6275 13.6994 59.0954 17.955 59.4455 21.2057L59.4486 21.2344C59.481 21.5312 60 26.3657 60 31.966C60 37.6139 59.4844 42.3739 59.4489 42.6948L59.445 42.7303C59.0925 45.9914 56.6788 50.2619 53.9892 52.2316L53.9854 52.2344C53.9203 52.2818 49.9361 55.1823 45 58.0829C40.2893 60.813 36.0606 62.7134 35.5192 62.954C35.4794 62.9717 35.4414 62.989 35.4018 63.0072C33.9551 63.6691 31.9776 64 30 64C28.0773 64 26.0865 63.6644 24.5695 62.9933L24.5118 62.9679C24.1274 62.8002 19.7528 60.8757 15 58.0829C10.2605 55.2979 6.39862 52.5129 6.04088 52.2535C6.02095 52.239 6.00427 52.2267 5.98466 52.2118C3.37253 50.2326 0.904571 45.977 0.554521 42.7263L0.551408 42.6976C0.518959 42.4008 0 37.5663 0 31.966C0 26.3181 0.515599 21.5581 0.551077 21.2372L0.554953 21.2017C0.906481 17.9502 3.30699 13.6952 5.98704 11.7179C6.00504 11.7046 6.02013 11.6937 6.03837 11.6808C6.38018 11.4384 10.2492 8.70877 15 5.91711C19.7107 3.18695 23.9394 1.2866 24.4808 1.04603C24.5206 1.02834 24.5586 1.01097 24.5982 0.992839C26.0449 0.330946 28.0224 0 30 0C31.9227 0 33.9135 0.335571 35.4305 1.00671L35.4882 1.0321C35.8726 1.19979 40.2472 3.12428 45 5.91711C49.7395 8.63734 53.6014 11.4193 53.9591 11.6785C53.979 11.693 53.9957 11.7053 54.0153 11.7202Z" fill="#EE3F58"/>
<path fill-rule="evenodd" clip-rule="evenodd" d="M41.9356 17.4187C42.0561 18.0617 41.6326 18.6807 40.9895 18.8013L34.8696 19.9488C34.8638 19.9795 34.8578 20.0103 34.8515 20.041C34.4415 22.0534 33.0755 24.0434 30.5206 24.7633V44.4524H37.1796C37.8339 44.4524 38.3643 44.9827 38.3643 45.637C38.3643 46.2912 37.8339 46.8216 37.1796 46.8216L21.3848 46.8216C20.7305 46.8216 20.2002 46.2912 20.2002 45.637C20.2002 44.9827 20.7305 44.4524 21.3848 44.4524H28.1513V25.0099C26.0583 24.8465 24.4651 23.6366 23.5171 22.1592C23.5015 22.1349 23.4861 22.1105 23.4708 22.0861L18.0152 23.109C17.3721 23.2296 16.7531 22.806 16.6325 22.163C16.512 21.5199 16.9355 20.9009 17.5786 20.7803L40.5529 16.4727C41.196 16.3521 41.815 16.7756 41.9356 17.4187ZM29.4609 22.58C30.8333 22.3235 31.7374 21.5105 32.2145 20.5338L26.1541 21.6664C26.9518 22.4048 28.0885 22.8365 29.4609 22.58ZM41.7857 33.5336C41.1372 34.406 40.0991 35.0391 38.703 35.0391C37.3068 35.0391 36.2687 34.406 35.6203 33.5336H41.7857ZM32.459 31.1643C32.459 31.9282 32.6185 32.7477 32.9377 33.5336C33.7711 35.5859 35.6929 37.4083 38.703 37.4083C41.7131 37.4083 43.6348 35.5859 44.4683 33.5336C44.7874 32.7477 44.947 31.9282 44.947 31.1643H44.9528L40.0714 22.6226L40.0541 22.5922L39.7299 22.025L39.2264 21.1439C38.9967 20.7419 38.417 20.742 38.1874 21.144L37.6842 22.0252L37.3601 22.5926L37.3428 22.6229L32.4648 31.1643H32.459ZM35.1932 31.1643H42.224L38.7074 25.0109L35.1932 31.1643ZM23.0764 38.2171C22.4272 39.1198 21.378 39.7748 19.9706 39.7748C18.5631 39.7748 17.5139 39.1198 16.8647 38.2171H23.0764ZM13.7266 35.8479C13.7266 36.6117 13.8835 37.4308 14.1973 38.2171C15.0264 40.2947 16.9509 42.1441 19.9706 42.1441C22.9902 42.1441 24.9147 40.2947 25.7438 38.2171C26.0576 37.4308 26.2146 36.6117 26.2146 35.8479H26.2165L21.3351 27.3061L21.3177 27.2758L20.9936 26.7086L20.4901 25.8275C20.2604 25.4255 19.6807 25.4256 19.4511 25.8276L18.9478 26.7088L18.6238 27.2762L18.6065 27.3065L13.7285 35.8479H13.7266ZM19.9711 29.6944L23.4876 35.8479H16.4568L19.9711 29.6944ZM27.776 38.5803H27.778L27.776 38.5769V38.5803ZM46.5143 33.8967H46.5123V33.8933L46.5143 33.8967Z" fill="white"/>
</svg>
