<svg width="17" height="18" viewBox="0 0 17 18" fill="none" xmlns="http://www.w3.org/2000/svg">
<path fill-rule="evenodd" clip-rule="evenodd" d="M14.2407 2.87026L13.2857 1.82827C12.9165 1.42546 12.2924 1.39354 11.884 1.75657L10.3213 3.14595L12.6194 5.68301L14.1714 4.29013C14.5854 3.91852 14.6166 3.28042 14.2407 2.87026ZM1.5 10.9885L9.2002 4.14264L11.5031 6.68493L3.90674 13.5027H1.5V10.9885ZM15.3465 1.85678L14.3915 0.814795C13.4686 -0.192228 11.9083 -0.272045 10.8874 0.635547L0.335571 10.0166C0.122122 10.2064 0 10.4783 0 10.764V14.0027C0 14.555 0.447715 15.0027 1 15.0027H4.09822C4.34478 15.0027 4.58266 14.9116 4.76616 14.7469L15.1733 5.40645C16.2084 4.47742 16.2863 2.88217 15.3465 1.85678ZM16 16.5001H0V18.0001H16V16.5001Z" fill="#0D4CD3"/>
</svg>
