<svg xmlns="http://www.w3.org/2000/svg" width="238" height="256" viewBox="0 0 238 256">
  <g fill="#62B84D" fill-rule="evenodd" transform="translate(1)">
    <path fill-rule="nonzero" d="M233.572151,84.7378036 C232.214173,71.7012184 222.436734,54.5907004 212.116104,46.7144302 C212.116104,46.7144302 196.363564,35.0358226 176.808686,23.6288106 C157.253809,11.9502031 139.328504,4.07393286 139.328504,4.07393286 C133.353402,1.35797762 125.477132,1.42108547e-14 117.872458,1.42108547e-14 C109.996187,1.42108547e-14 102.119917,1.35797762 96.4164111,4.07393286 C96.4164111,4.07393286 78.762702,11.9502031 58.9362288,23.6288106 C39.381351,35.3074182 23.6288106,46.7144302 23.6288106,46.7144302 C13.0365852,54.5907004 3.53074182,71.7012184 2.17276419,84.7378036 C2.17276419,84.7378036 1.42108547e-14,104.292681 1.42108547e-14,127.649896 C1.42108547e-14,150.735516 2.17276419,170.561989 2.17276419,170.561989 C3.53074182,183.598574 13.3081807,200.709092 23.6288106,208.585363 C23.6288106,208.585363 39.381351,220.26397 58.9362288,231.942578 C78.4911065,243.621185 96.4164111,251.497455 96.4164111,251.497455 C102.391513,254.213411 110.267783,255.571388 117.872458,255.571388 C125.748728,255.571388 133.624998,254.213411 139.328504,251.497455 C139.328504,251.497455 156.982213,243.621185 176.808686,231.942578 C196.363564,220.26397 212.116104,208.585363 212.116104,208.585363 C222.70833,200.709092 232.214173,183.598574 233.572151,170.561989 C233.572151,170.561989 235.744915,151.007111 235.744915,127.649896 C235.744915,104.564277 233.572151,84.7378036 233.572151,84.7378036 Z M222.70833,169.204012 C221.621948,179.524642 213.474082,193.647609 205.597812,199.62271 C205.326216,199.62271 190.116867,211.029722 171.376776,222.165139 C152.636685,233.300555 135.254571,241.176826 134.982976,241.176826 C130.637447,243.077994 124.39075,244.164376 117.872458,244.164376 C111.354165,244.164376 105.107468,243.077994 100.761939,241.176826 C100.490344,241.176826 83.3798259,233.300555 64.3681392,222.165139 C45.6280481,211.029722 30.1471032,199.62271 30.1471032,199.62271 C21.9992375,193.647609 14.1229673,179.253046 13.0365852,169.204012 C12.7649896,169.204012 10.863821,149.920729 10.863821,127.649896 C10.863821,105.379063 12.7649896,86.0957812 12.7649896,86.0957812 C13.8513717,75.7751513 21.9992375,61.652184 29.8755077,55.6770825 C30.1471032,55.6770825 45.3564525,44.2700705 64.0965437,33.134654 C82.8366349,21.9992375 100.218748,14.1229673 100.490344,14.1229673 C105.107468,11.9502031 111.354165,10.863821 117.872458,10.863821 C124.39075,10.863821 130.637447,11.9502031 134.982976,13.8513717 C135.254571,13.8513717 152.365089,21.7276419 171.376776,32.8630584 C190.116867,43.9984749 205.597812,55.4054869 205.597812,55.4054869 C213.745678,61.3805885 221.893543,75.7751513 222.70833,85.8241857 C222.70833,86.0957812 224.609499,105.107468 224.609499,127.378301 C224.881094,149.920729 222.70833,169.204012 222.70833,169.204012 Z"/>
    <path fill-rule="nonzero" d="M68,52 L168,52 C175.731986,52 182,58.2680135 182,66 L182,189 C182,196.731986 175.731986,203 168,203 L68,203 C60.2680135,203 54,196.731986 54,189 L54,66 C54,58.2680135 60.2680135,52 68,52 Z M68,64 C66.8954305,64 66,64.8954305 66,66 L66,189 C66,190.104569 66.8954305,191 68,191 L168,191 C169.104569,191 170,190.104569 170,189 L170,66 C170,64.8954305 169.104569,64 168,64 L68,64 Z"/>
    <rect width="70" height="12" x="83" y="78" fill-rule="nonzero" rx="6"/>
    <rect width="70" height="12" x="83" y="100" fill-rule="nonzero" rx="6"/>
    <path fill-rule="nonzero" d="M139.014652,157.947034 L139.014652,178.686813 C139.014652,180.240493 137.755145,181.5 136.201465,181.5 L81.8131868,181.5 C80.2595066,181.5 79,180.240493 79,178.686813 L79,143.990842 C79,142.437162 80.2595066,141.177656 81.8131868,141.177656 L99.1611722,141.177656 L99.1611722,132.738095 C99.1611722,131.184415 100.420679,129.924908 101.974359,129.924908 L116.040293,129.924908 C117.593973,129.924908 118.85348,131.184415 118.85348,132.738095 L118.85348,141.177656 L122.632648,141.177656 C122.459801,140.109174 122.369963,139.012881 122.369963,137.895604 C122.369963,126.631423 131.501386,117.5 142.765568,117.5 C154.029749,117.5 163.161172,126.631423 163.161172,137.895604 C163.161172,149.159786 154.029749,158.291209 142.765568,158.291209 C141.484231,158.291209 140.230492,158.17305 139.014652,157.947034 Z M124.968446,147.865144 L86.5511857,147.865144 L86.5511857,158.155485 L100.382687,158.155485 L100.382687,156.366397 C100.382687,154.506069 101.890781,152.997976 103.751109,152.997976 L114.979179,152.997976 C116.839506,152.997976 118.3476,154.506069 118.3476,156.366397 L118.3476,158.155485 L131.463466,158.155485 L131.463466,154.875941 C128.783685,153.08872 126.550906,150.684017 124.968449,147.865148 Z M86.5511857,167.137941 L86.5511857,174.812512 L131.463466,174.812512 L131.463466,167.137941 L118.3476,167.137941 L118.3476,167.594467 C118.3476,169.454795 116.839506,170.962888 114.979179,170.962888 L103.751109,170.962888 C101.890781,170.962888 100.382687,169.454795 100.382687,167.594467 L100.382687,167.137941 L86.5511857,167.137941 Z M105.638905,135.64999 L105.638905,140.141218 L112.375747,140.141218 L112.375747,135.64999 L105.638905,135.64999 Z M107.11953,159.734818 L107.11953,164.226046 L111.610758,164.226046 L111.610758,159.734818 L107.11953,159.734818 Z M142.765568,150.246482 C149.586769,150.246482 155.116445,144.716806 155.116445,137.895604 C155.116445,131.074403 149.586769,125.544727 142.765568,125.544727 C135.944367,125.544727 130.414691,131.074403 130.414691,137.895604 C130.414691,144.716806 135.944367,150.246482 142.765568,150.246482 Z"/>
    <path d="M147.242641,138 L149.363961,140.12132 C150.535534,141.292893 150.535534,143.192388 149.363961,144.363961 C148.192388,145.535534 146.292893,145.535534 145.12132,144.363961 L143,142.242641 L140.87868,144.363961 C139.707107,145.535534 137.807612,145.535534 136.636039,144.363961 C135.464466,143.192388 135.464466,141.292893 136.636039,140.12132 L138.757359,138 L136.636039,135.87868 C135.464466,134.707107 135.464466,132.807612 136.636039,131.636039 C137.807612,130.464466 139.707107,130.464466 140.87868,131.636039 L143,133.757359 L145.12132,131.636039 C146.292893,130.464466 148.192388,130.464466 149.363961,131.636039 C150.535534,132.807612 150.535534,134.707107 149.363961,135.87868 L147.242641,138 Z"/>
  </g>
</svg>
