<svg viewBox="0 0 60 64" fill="none" xmlns="http://www.w3.org/2000/svg">
<path d="M54.0153 11.7202C56.6275 13.6994 59.0954 17.955 59.4455 21.2057L59.4486 21.2344C59.481 21.5312 60 26.3657 60 31.966C60 37.6139 59.4844 42.3739 59.4489 42.6948L59.445 42.7303C59.0925 45.9914 56.6788 50.2619 53.9892 52.2316L53.9854 52.2344C53.9203 52.2818 49.9361 55.1823 45 58.0829C40.2893 60.813 36.0606 62.7134 35.5192 62.954C35.4794 62.9717 35.4414 62.989 35.4018 63.0072C33.9551 63.6691 31.9776 64 30 64C28.0773 64 26.0865 63.6644 24.5695 62.9933L24.5118 62.9679C24.1274 62.8002 19.7528 60.8757 15 58.0829C10.2605 55.2979 6.39862 52.5129 6.04088 52.2535C6.02095 52.239 6.00427 52.2267 5.98466 52.2118C3.37253 50.2326 0.904571 45.977 0.554521 42.7263L0.551408 42.6976C0.518959 42.4008 0 37.5663 0 31.966C0 26.3181 0.515599 21.5581 0.551077 21.2372L0.554953 21.2017C0.906481 17.9502 3.30699 13.6952 5.98704 11.7179C6.00504 11.7046 6.02013 11.6937 6.03837 11.6808C6.38018 11.4384 10.2492 8.70877 15 5.91711C19.7107 3.18695 23.9394 1.2866 24.4808 1.04603C24.5206 1.02834 24.5586 1.01097 24.5982 0.992839C26.0449 0.330946 28.0224 0 30 0C31.9227 0 33.9135 0.335571 35.4305 1.00671L35.4882 1.0321C35.8726 1.19979 40.2472 3.12428 45 5.91711C49.7395 8.63734 53.6014 11.4193 53.9591 11.6785C53.979 11.693 53.9957 11.7053 54.0153 11.7202Z" fill="#1B89EF"/>
<path d="M17.9995 19.4286C17.9995 18.0873 19.0868 17 20.4281 17C20.8007 17 20.9984 17.0679 21.1104 17.1249C21.2273 17.1844 21.3246 17.2683 21.4677 17.4249C21.4937 17.4534 21.5227 17.4868 21.5549 17.5241C21.8448 17.8593 22.3975 18.4984 23.4519 18.5235C24.5356 18.5493 25.2541 17.9461 25.6919 17.5785C25.7071 17.5658 25.7219 17.5534 25.7364 17.5413C26.2309 17.1274 26.4271 17 26.7138 17C27.0067 17 27.2066 17.1278 27.6951 17.5322C27.7112 17.5455 27.7277 17.5592 27.7445 17.5732C28.1811 17.936 28.8883 18.5238 29.9519 18.5238C31.0154 18.5238 31.7227 17.936 32.1592 17.5732C32.1761 17.5592 32.1925 17.5455 32.2086 17.5322C32.6971 17.1278 32.8971 17 33.19 17C33.4828 17 33.6828 17.1278 34.1713 17.5322C34.1873 17.5455 34.2038 17.5592 34.2207 17.5732C34.6572 17.936 35.3645 18.5238 36.428 18.5238C37.5063 18.5238 38.0846 17.9048 38.4057 17.5611C38.44 17.5244 38.4713 17.4908 38.5001 17.4614C38.6585 17.2996 38.7719 17.2049 38.9115 17.1367C39.0463 17.0709 39.2689 17 39.6661 17C40.9022 17 41.9042 18.002 41.9042 19.2381V43.4285C41.9042 45.4009 40.3052 46.9999 38.3328 46.9999H21.5709C19.5985 46.9999 17.9995 45.4009 17.9995 43.4285V19.4286Z" stroke="white" stroke-width="2"/>
<rect x="21.9995" y="24" width="16" height="3" rx="1.5" fill="white"/>
<rect x="21.9995" y="30" width="9" height="3" rx="1.5" fill="white"/>
<rect x="21.9995" y="37" width="9" height="3" rx="1.5" fill="white"/>
<rect x="34.5225" y="30.4756" width="3.42856" height="3.42856" rx="1.71428" fill="white"/>
<rect x="34.5225" y="36.9521" width="3.42856" height="3.42856" rx="1.71428" fill="white"/>
</svg>
