<svg viewBox="0 0 136 106" fill="none" xmlns="http://www.w3.org/2000/svg">
<g filter="url(#filter0_d)">
<rect x="18" y="18" width="98" height="68" rx="13" fill="#EAE7FF"/>
</g>
<g filter="url(#filter1_d)">
<rect x="18" y="18" width="98" height="68" rx="13" fill="#EAE7FF"/>
</g>
<path d="M106.487 86H27.5129C22.2595 86 18 81.7057 18 76.4094V27.5906C18 22.2943 22.2595 18 27.5129 18H106.487C111.74 18 116 22.2943 116 27.5906V76.4094C115.997 81.7057 111.74 86 106.487 86Z" fill="#FFE4BD"/>
<path d="M73.194 52.0678L23.3846 19.082L22.6881 19.4549L21.9432 19.9462L21.2675 20.4898L20.6057 21.1206L19.9993 21.8349L19.4553 22.6364L19.1746 23.1103L19.088 23.2741L18.9633 23.5145L18.7796 23.9048L18.499 24.6401L18.1975 25.7482L18 27.1978V76.7183L18.0866 77.7288L18.2911 78.7847L18.5787 79.722L18.9356 80.5723L19.1712 81.0358L19.58 81.7118L19.8018 82.0359L20.1795 82.5237L20.5364 82.9349L21.1601 83.5517L21.7457 84.0395L22.2827 84.4228L22.6951 84.6842L23.0035 84.8584L23.3846 85.0536L73.194 52.0678Z" fill="#FFEACA"/>
<path d="M60.8594 52.0678L110.672 19.082L111.365 19.4549L112.114 19.9462L112.786 20.4898L113.451 21.1206L114.054 21.8349L114.602 22.6364L114.882 23.1103L114.965 23.2741L115.09 23.5145L115.274 23.9048L115.558 24.6401L115.856 25.7482L116.053 27.1978V76.7183L115.967 77.7288L115.762 78.7847L115.475 79.722L115.118 80.5723L114.882 81.0358L114.477 81.7118L114.252 82.0359L113.874 82.5237L113.52 82.9349L112.897 83.5517L112.308 84.0395L111.774 84.4228L111.358 84.6842L111.05 84.8584L110.672 85.0536L60.8594 52.0678Z" fill="#FFEACA"/>
<path d="M59.6182 58.7326L18.8975 23.6421L19.2613 22.9416L19.7464 22.1785L19.9993 21.8335L20.3632 21.391L20.8067 20.8892L21.2675 20.4884L21.6799 20.1469L21.9432 19.9483L22.2758 19.7148L22.6882 19.4535L23.2495 19.1468L23.8247 18.882L24.3098 18.6904L24.9335 18.4882L25.675 18.3105L26.6175 18.1746L27.4283 18.1328H67.0264H106.777L107.56 18.1886L108.024 18.2513L108.645 18.3698L109.189 18.5126L109.899 18.7496L110.623 19.0597L111.115 19.3141L111.905 19.802L112.418 20.1818L112.768 20.4745L112.938 20.6278L113.703 21.4154L114.292 22.1646L114.66 22.7256L115.152 23.6455L74.4311 58.736C70.1726 62.4054 63.8801 62.4054 59.6182 58.7326Z" fill="#FFF2DF"/>
<path d="M103.579 43.0063C111.543 43.0063 118 36.513 118 28.5031C118 20.4933 111.543 14 103.579 14C95.6139 14 89.1572 20.4933 89.1572 28.5031C89.1572 36.513 95.6139 43.0063 103.579 43.0063Z" fill="#FFA7A7"/>
<path d="M106.223 20.2344V36.7656H102.12V27.9041C102.12 26.6252 102.089 25.8551 102.03 25.5973C101.971 25.3394 101.801 25.1443 101.527 25.0118C101.254 24.8794 100.644 24.8132 99.6945 24.8132H99.2891V22.8862C101.271 22.4576 102.778 21.576 103.807 20.2379H106.223V20.2344Z" fill="white"/>
<defs>
<filter id="filter0_d" x="14" y="14" width="122" height="92" filterUnits="userSpaceOnUse" color-interpolation-filters="sRGB">
<feFlood flood-opacity="0" result="BackgroundImageFix"/>
<feColorMatrix in="SourceAlpha" type="matrix" values="0 0 0 0 0 0 0 0 0 0 0 0 0 0 0 0 0 0 127 0"/>
<feOffset dx="8" dy="8"/>
<feGaussianBlur stdDeviation="6"/>
<feColorMatrix type="matrix" values="0 0 0 0 0.886667 0 0 0 0 0.912 0 0 0 0 0.95 0 0 0 0.8 0"/>
<feBlend mode="normal" in2="BackgroundImageFix" result="effect1_dropShadow"/>
<feBlend mode="normal" in="SourceGraphic" in2="effect1_dropShadow" result="shape"/>
</filter>
<filter id="filter1_d" x="0" y="0" width="118" height="88" filterUnits="userSpaceOnUse" color-interpolation-filters="sRGB">
<feFlood flood-opacity="0" result="BackgroundImageFix"/>
<feColorMatrix in="SourceAlpha" type="matrix" values="0 0 0 0 0 0 0 0 0 0 0 0 0 0 0 0 0 0 127 0"/>
<feOffset dx="-8" dy="-8"/>
<feGaussianBlur stdDeviation="5"/>
<feColorMatrix type="matrix" values="0 0 0 0 1 0 0 0 0 1 0 0 0 0 1 0 0 0 0.8 0"/>
<feBlend mode="normal" in2="BackgroundImageFix" result="effect1_dropShadow"/>
<feBlend mode="normal" in="SourceGraphic" in2="effect1_dropShadow" result="shape"/>
</filter>
</defs>
</svg>
