<svg viewBox="0 0 60 64" fill="none" xmlns="http://www.w3.org/2000/svg">
<path d="M54.0153 11.7202C56.6275 13.6994 59.0954 17.955 59.4455 21.2057L59.4486 21.2344C59.481 21.5312 60 26.3656 60 31.966C60 37.6139 59.4844 42.3739 59.4489 42.6948L59.445 42.7303C59.0925 45.9914 56.6788 50.2619 53.9892 52.2316L53.9854 52.2344C53.9203 52.2818 49.9361 55.1823 45 58.0829C40.2893 60.8131 36.0606 62.7134 35.5192 62.954C35.4794 62.9717 35.4414 62.989 35.4018 63.0072C33.9551 63.6691 31.9776 64 30 64C28.0773 64 26.0865 63.6644 24.5695 62.9933L24.5118 62.9679C24.1274 62.8002 19.7528 60.8757 15 58.0829C10.2605 55.2979 6.39863 52.5129 6.04088 52.2535C6.02095 52.239 6.00427 52.2267 5.98465 52.2118C3.37253 50.2326 0.904571 45.977 0.554521 42.7263L0.551408 42.6976C0.518959 42.4008 0 37.5663 0 31.966C0 26.3181 0.515599 21.5581 0.551077 21.2372L0.554953 21.2017C0.906481 17.9502 3.30699 13.6952 5.98704 11.7179C6.00504 11.7046 6.02013 11.6937 6.03837 11.6808C6.38018 11.4384 10.2492 8.70877 15 5.91711C19.7107 3.18695 23.9394 1.2866 24.4808 1.04603C24.5206 1.02834 24.5586 1.01097 24.5982 0.992838C26.0449 0.330946 28.0224 0 30 0C31.9227 0 33.9135 0.335571 35.4305 1.00671L35.4882 1.0321C35.8726 1.19979 40.2472 3.12428 45 5.91711C49.7395 8.63734 53.6014 11.4193 53.9591 11.6785C53.979 11.693 53.9957 11.7053 54.0153 11.7202Z" fill="#FFA51D"/>
<path fill-rule="evenodd" clip-rule="evenodd" d="M22.5861 17.03H36.8962C37.3207 17.03 37.6571 17.3882 37.6306 17.8118L35.9224 45.1427C35.8982 45.5305 35.5766 45.8326 35.188 45.8326H24.2943C23.9057 45.8326 23.5841 45.5305 23.5599 45.1427L21.8517 17.8118C21.8252 17.3882 22.1616 17.03 22.5861 17.03ZM19.4386 17.9626C19.3252 16.1471 20.767 14.6123 22.5861 14.6123H36.8962C38.7153 14.6123 40.1571 16.1471 40.0436 17.9626L38.3355 45.2935C38.2316 46.9556 36.8533 48.2504 35.188 48.2504H24.2943C22.629 48.2504 21.2507 46.9555 21.1468 45.2935L19.4386 17.9626ZM31.0038 23.5454C31.0038 24.242 30.4391 24.8068 29.7424 24.8068C29.0457 24.8068 28.481 24.242 28.481 23.5454C28.481 22.8487 29.0457 22.2839 29.7424 22.2839C30.4391 22.2839 31.0038 22.8487 31.0038 23.5454ZM33.4216 23.5454C33.4216 25.5773 31.7743 27.2245 29.7424 27.2245C27.7104 27.2245 26.0632 25.5773 26.0632 23.5454C26.0632 21.5134 27.7104 19.8662 29.7424 19.8662C31.7743 19.8662 33.4216 21.5134 33.4216 23.5454ZM29.7424 33.217C30.4391 33.217 31.0038 32.6522 31.0038 31.9555C31.0038 31.2589 30.4391 30.6941 29.7424 30.6941C29.0457 30.6941 28.481 31.2589 28.481 31.9555C28.481 32.6522 29.0457 33.217 29.7424 33.217ZM29.7424 35.6347C31.7743 35.6347 33.4216 33.9875 33.4216 31.9555C33.4216 29.9236 31.7743 28.2764 29.7424 28.2764C27.7104 28.2764 26.0632 29.9236 26.0632 31.9555C26.0632 33.9875 27.7104 35.6347 29.7424 35.6347ZM31.0032 40.3663C31.0032 41.063 30.4384 41.6278 29.7417 41.6278C29.0451 41.6278 28.4803 41.063 28.4803 40.3663C28.4803 39.6697 29.0451 39.1049 29.7417 39.1049C30.4384 39.1049 31.0032 39.6697 31.0032 40.3663ZM33.4209 40.3663C33.4209 42.3983 31.7737 44.0455 29.7417 44.0455C27.7098 44.0455 26.0626 42.3983 26.0626 40.3663C26.0626 38.3344 27.7098 36.6872 29.7417 36.6872C31.7737 36.6872 33.4209 38.3344 33.4209 40.3663Z" fill="white"/>
</svg>
