<svg viewBox="0 0 60 64" fill="none" xmlns="http://www.w3.org/2000/svg">
<path d="M54.0153 11.7202C56.6275 13.6994 59.0954 17.955 59.4455 21.2057L59.4486 21.2344C59.481 21.5312 60 26.3657 60 31.966C60 37.6139 59.4844 42.3739 59.4489 42.6948L59.445 42.7303C59.0925 45.9914 56.6788 50.2619 53.9892 52.2316L53.9854 52.2344C53.9203 52.2818 49.9361 55.1823 45 58.0829C40.2893 60.813 36.0606 62.7134 35.5192 62.954C35.4794 62.9717 35.4414 62.989 35.4018 63.0072C33.9551 63.6691 31.9776 64 30 64C28.0773 64 26.0865 63.6644 24.5695 62.9933L24.5118 62.9679C24.1274 62.8002 19.7528 60.8757 15 58.0829C10.2605 55.2979 6.39862 52.5129 6.04088 52.2535C6.02095 52.239 6.00427 52.2267 5.98466 52.2118C3.37253 50.2326 0.904571 45.977 0.554521 42.7263L0.551408 42.6976C0.518959 42.4008 0 37.5663 0 31.966C0 26.3181 0.515599 21.5581 0.551077 21.2372L0.554953 21.2017C0.906481 17.9502 3.30699 13.6952 5.98704 11.7179C6.00504 11.7046 6.02013 11.6937 6.03837 11.6808C6.38018 11.4384 10.2492 8.70877 15 5.91711C19.7107 3.18695 23.9394 1.2866 24.4808 1.04603C24.5206 1.02834 24.5586 1.01097 24.5982 0.992839C26.0449 0.330946 28.0224 0 30 0C31.9227 0 33.9135 0.335571 35.4305 1.00671L35.4882 1.0321C35.8726 1.19979 40.2472 3.12428 45 5.91711C49.7395 8.63734 53.6014 11.4193 53.9591 11.6785C53.979 11.693 53.9957 11.7053 54.0153 11.7202Z" fill="#9CA8BA"/>
<path fill-rule="evenodd" clip-rule="evenodd" d="M34.4346 18.4375C35.1427 18.4375 35.7864 18.6954 36.237 19.1467L41.7084 24.4338C42.2234 24.9497 42.4809 25.5944 42.4809 26.3037V44.873C42.4809 46.2915 41.3222 47.452 39.9061 47.452H21.7538C20.3376 47.452 19.179 46.2915 19.179 44.873V21.0166C19.179 19.5981 20.3376 18.4375 21.7538 18.4375H34.4346ZM35.3358 26.3037H39.9061L34.499 21.1455V25.4655C34.499 25.9168 34.8852 26.3037 35.3358 26.3037ZM21.7538 21.0166V44.873H39.9061V28.8827H35.3358C33.4691 28.8827 31.9242 27.3353 31.9242 25.4655V21.0166H21.7538ZM33.4052 31.1408C33.9202 30.625 34.6926 30.625 35.2076 31.1408C35.6582 31.6566 35.6582 32.4303 35.1432 32.9461L27.805 40.2965C27.5476 40.5544 27.2257 40.6833 26.9039 40.6833C26.582 40.6833 26.2602 40.5544 26.0027 40.2965C25.4877 39.7807 25.4877 39.0069 26.0027 38.4911L33.4052 31.1408ZM34.3702 40.7473C35.2945 40.7473 36.0438 39.9968 36.0438 39.0709C36.0438 38.1451 35.2945 37.3945 34.3702 37.3945C33.4458 37.3945 32.6965 38.1451 32.6965 39.0709C32.6965 39.9968 33.4458 40.7473 34.3702 40.7473ZM28.9637 32.1686C28.9637 33.0944 28.2144 33.845 27.2901 33.845C26.3658 33.845 25.6165 33.0944 25.6165 32.1686C25.6165 31.2427 26.3658 30.4922 27.2901 30.4922C28.2144 30.4922 28.9637 31.2427 28.9637 32.1686Z" fill="white"/>
</svg>
