<svg viewBox="0 0 60 64" fill="none" xmlns="http://www.w3.org/2000/svg">
<path d="M54.0153 11.7202C56.6275 13.6994 59.0954 17.955 59.4455 21.2057L59.4486 21.2344C59.481 21.5312 60 26.3657 60 31.966C60 37.6139 59.4844 42.3739 59.4489 42.6948L59.445 42.7303C59.0925 45.9914 56.6788 50.2619 53.9892 52.2316L53.9854 52.2344C53.9203 52.2818 49.9361 55.1823 45 58.0829C40.2893 60.813 36.0606 62.7134 35.5192 62.954C35.4794 62.9717 35.4414 62.989 35.4018 63.0072C33.9551 63.6691 31.9776 64 30 64C28.0773 64 26.0865 63.6644 24.5695 62.9933L24.5118 62.9679C24.1274 62.8002 19.7528 60.8757 15 58.0829C10.2605 55.2979 6.39862 52.5129 6.04088 52.2535C6.02095 52.239 6.00427 52.2267 5.98466 52.2118C3.37253 50.2326 0.904571 45.977 0.554521 42.7263L0.551408 42.6976C0.518959 42.4008 0 37.5663 0 31.966C0 26.3181 0.515599 21.5581 0.551077 21.2372L0.554953 21.2017C0.906481 17.9502 3.30699 13.6952 5.98704 11.7179C6.00504 11.7046 6.02013 11.6937 6.03837 11.6808C6.38018 11.4384 10.2492 8.70877 15 5.91711C19.7107 3.18695 23.9394 1.2866 24.4808 1.04603C24.5206 1.02834 24.5586 1.01097 24.5982 0.992839C26.0449 0.330946 28.0224 0 30 0C31.9227 0 33.9135 0.335571 35.4305 1.00671L35.4882 1.0321C35.8726 1.19979 40.2472 3.12428 45 5.91711C49.7395 8.63734 53.6014 11.4193 53.9591 11.6785C53.979 11.693 53.9957 11.7053 54.0153 11.7202Z" fill="#9455E4"/>
<path fill-rule="evenodd" clip-rule="evenodd" d="M18.0694 18.7148H22.0461V21.3657H18.0694C16.3619 21.3657 15.4185 22.5689 15.4185 23.5346V27.1523H12.7676V23.5346C12.7676 20.8727 15.1413 18.7148 18.0694 18.7148ZM22.0461 45.2236V42.5728H18.0694C16.3619 42.5728 15.4185 41.3697 15.4185 40.4039V36.7919H12.7676V40.4039C12.7676 43.0658 15.1413 45.2237 18.0694 45.2237H41.9273C44.8554 45.2237 47.2291 43.0658 47.2291 40.4039V36.7919H44.5782V40.4039C44.5782 41.3697 43.6348 42.5728 41.9273 42.5728H37.9514V45.2236H22.0461ZM37.9514 18.7148V21.3657H41.9273C43.6348 21.3657 44.5782 22.5689 44.5782 23.5346V27.1523H47.2291V23.5346C47.2291 20.8727 44.8554 18.7148 41.9273 18.7148H37.9514ZM31.3252 26.668H28.6743V37.2715H31.3252V26.668ZM24.6978 26.6681H22.0469V37.2717H24.6978V26.6681ZM35.3019 26.668H37.9528V37.2715H35.3019V26.668Z" fill="white"/>
</svg>
