<svg viewBox="0 0 60 64" fill="none" xmlns="http://www.w3.org/2000/svg">
<path d="M54.0422 11.7406C56.6408 13.7258 59.09 17.9546 59.444 21.1925L59.4497 21.2447C59.4914 21.6283 60 26.4218 60 31.966C60 37.5401 59.4978 42.2495 59.4506 42.68L59.4432 42.7472C59.0843 46.005 56.6758 50.2624 53.992 52.2295L53.9832 52.236C53.8596 52.3259 49.8985 55.2044 45 58.0829C40.4257 60.734 36.3058 62.6027 35.5754 62.9289C35.499 62.963 35.4232 62.9978 35.3469 63.032C33.9053 63.6773 31.9527 64 30 64C28.0891 64 26.1109 63.6685 24.5975 63.0056L24.4816 62.9547C23.9398 62.7174 19.651 60.8159 15 58.0829C10.3646 55.359 6.56862 52.6352 6.06948 52.2742C6.03118 52.2465 5.99538 52.2201 5.95782 52.1914C3.35917 50.2062 0.910009 45.9773 0.555948 42.7395L0.550286 42.6873C0.508603 42.3037 0 37.5102 0 31.966C0 26.3918 0.50223 21.6824 0.549445 21.252L0.556792 21.1848C0.913675 17.9455 3.29693 13.7179 5.96241 11.7361C5.99687 11.7105 6.03022 11.6865 6.06529 11.6617C6.54697 11.321 10.3513 8.64874 15 5.91711C19.5743 3.26599 23.6942 1.39732 24.4246 1.07108C24.501 1.03696 24.5768 1.00218 24.6531 0.967994C26.0947 0.322665 28.0473 0 30 0C31.9108 0 33.8891 0.331462 35.4025 0.994386L35.5184 1.04529C36.0602 1.28265 40.349 3.18411 45 5.91711C49.6354 8.57762 53.4314 11.2971 53.9305 11.6578C53.9688 11.6855 54.0046 11.7119 54.0422 11.7406Z" fill="#2DC36A"/>
<path fill-rule="evenodd" clip-rule="evenodd" d="M16.3595 17.9111C15.7152 17.9111 15.1929 18.4335 15.1929 19.0778C15.1929 19.7221 15.7152 20.2445 16.3595 20.2445H17.5828V44.8335C17.5828 45.2457 17.8004 45.6274 18.1552 45.8374C18.5099 46.0474 18.9492 46.0546 19.3106 45.8563L22.9305 43.8705L25.6944 45.7915C26.081 46.0602 26.5913 46.0701 26.9882 45.8167L30.014 43.8843L33.0411 45.8168C33.4378 46.0701 33.9479 46.0602 34.3345 45.7916L37.0996 43.8705L40.7196 45.8563C41.0811 46.0546 41.5203 46.0474 41.8751 45.8374C42.2299 45.6274 42.4474 45.2457 42.4474 44.8335V20.2445H43.6416C44.2859 20.2445 44.8083 19.7221 44.8083 19.0778C44.8083 18.4335 44.2859 17.9111 43.6416 17.9111L16.3595 17.9111ZM40.1141 20.2445L19.9162 20.2445V42.8628L22.4419 41.4772C22.83 41.2643 23.3053 41.2894 23.6688 41.5421L26.3876 43.4317L29.386 41.5168C29.7689 41.2723 30.2588 41.2723 30.6417 41.5168L33.6415 43.4318L36.3616 41.542C36.7251 41.2894 37.2003 41.2643 37.5884 41.4772L40.1141 42.8628V20.2445ZM24.9767 25.8057C24.3324 25.8057 23.8101 26.328 23.8101 26.9723C23.8101 27.6167 24.3324 28.139 24.9767 28.139L35.028 28.139C35.6723 28.139 36.1947 27.6167 36.1947 26.9723C36.1947 26.328 35.6723 25.8057 35.028 25.8057L24.9767 25.8057ZM23.8101 33.4372C23.8101 32.7928 24.3324 32.2705 24.9767 32.2705L29.2844 32.2705C29.9288 32.2705 30.4511 32.7928 30.4511 33.4372C30.4511 34.0815 29.9288 34.6038 29.2844 34.6038H24.9767C24.3324 34.6038 23.8101 34.0815 23.8101 33.4372Z" fill="white"/>
</svg>
